<svg viewBox="0 0 375 375" version="1.0"><path d="M40.295 89.564v.805c6.906 0 7.387 5.699 7.387 21.52v35.655c0 15.82-.48 21.52-7.387 21.52v.805h21.68v-.805c-6.907 0-13.489-9.395-13.489-32.762V94.06l50.832 77.414h.801v-59.586c0-15.82.485-21.52 7.39-21.52v-.804H85.827v.805c6.906 0 13.492 9.394 13.492 32.761v35.016L54.346 89.564zm0 0M112.328 90.369c6.907 0 7.387 5.699 7.387 21.52v35.655c0 15.82-.48 21.52-7.387 21.52v.805h21.68v-.805c-6.906 0-7.387-5.7-7.387-21.52v-35.656c0-15.82.48-21.52 7.387-21.52v-.804h-21.68zm0 0M176.973 171.474c10.278 0 17.344-1.605 23.77-3.695V157.02h-.883s-5.059 13.488-22.887 13.488c-15.5 0-28.507-17.344-28.507-40.793 0-23.449 11.882-40.793 28.507-40.793 13.41 0 19.914 5.7 19.914 15.258 0 11.723-22.566 16.461-22.566 30.594 0 3.695 2.652 8.433 6.988 7.469-1.605-1.364-2.41-2.73-2.41-5.22 0-9.558 22.727-15.5 22.727-32.202 0-7.309-6.262-16.864-24.653-16.864-19.996 0-35.738 17.668-35.738 41.758 0 24.09 15.742 41.758 35.738 41.758zm0 0M255.19 97.193c0 22.484-32.122 25.297-32.122 32.523 0 4.578 7.387 2.73 16.3 16.063 12.688 19.031 14.938 24.09 18.634 24.09h12.285v-.805c-9.156 0-16.703-14.211-24.254-25.453-7.707-11.567-22.164-9.317-22.164-13.895 0-5.218 38.867-7.87 38.867-32.683 0-2.973-.96-6.106-2.406-7.47h-7.95c1.766 1.286 2.81 4.657 2.81 7.63zm-49.548 72.676h21.602v-.805c-6.906 0-7.387-5.7-7.387-21.52v-35.656c0-15.82.48-21.52 7.387-21.52v-.804h-21.602v.805c6.907 0 7.387 5.699 7.387 21.52v35.655c0 15.82-.48 21.52-7.387 21.52zm0 0M275.906 108.837c0 26.34 51.719 19.516 51.719 43.684 0 8.914-9.235 17.508-20.961 17.508-19.113 0-29.633-19.114-29.633-19.114h-.8v10.762c5.94 4.418 15.335 9.797 25.937 9.797 18.55 0 30.113-11.082 30.113-22.242 0-28.11-50.75-20.32-50.75-42.32 0-8.914 8.188-17.989 23.125-17.989 17.188 0 22.086 13.489 22.086 13.489h.8V91.654c-6.183-2.09-13.007-3.696-22.886-3.696-18.55 0-28.75 9.715-28.75 20.88zm0 0M113.876 235.041h-1.16a4.204 4.204 0 01-1.497 1.598 3.815 3.815 0 01-2.093.605c-1.133 0-2.098-.41-2.899-1.254-.781-.8-1.16-1.777-1.16-2.926 0-1.144.379-2.125 1.16-2.94.364-.376.801-.68 1.297-.907.485-.223.969-.344 1.45-.344.468 0 .874.059 1.238.164 1.101.332 1.93.996 2.488 2.008h1.16a5.218 5.218 0 00-1.871-2.356 4.938 4.938 0 00-2.863-.902c-1.434 0-2.64.527-3.637 1.567a5.274 5.274 0 00-1.086 1.691 5.112 5.112 0 00-.39 2.02c0 1.449.48 2.667 1.476 3.695.996 1.054 2.203 1.57 3.637 1.57 1.039 0 1.988-.305 2.879-.906a5.13 5.13 0 001.87-2.383zm0 0M122.773 234.408l1.871-4.722 1.856 4.722zm6.367 3.77l-4.496-10.965-4.508 10.965h1.145l1.101-2.79h4.508l1.102 2.79zm0 0M137.134 233.111v-4.18h2.382c.618 0 1.118.196 1.493.59.363.391.558.876.558 1.477 0 .606-.195 1.102-.59 1.508-.39.406-.87.605-1.46.605zm5.488-2.097c0-.875-.332-1.63-.965-2.219-.617-.57-1.387-.875-2.293-.875h-3.285v10.258h1.055v-4.059h1.222l3.016 4.059h1.418l-3.168-4.059c.8-.043 1.476-.332 2.035-.86.633-.585.965-1.339.965-2.245zm0 0M167.63 233.049c0-.738-.149-1.418-.422-2.05a4.94 4.94 0 00-1.117-1.63c-.48-.453-1.04-.8-1.672-1.055a5.572 5.572 0 00-2.067-.394h-2.683v10.258h2.683a5.56 5.56 0 002.067-.38 5.303 5.303 0 001.672-1.07c.468-.453.847-.98 1.117-1.613a5.128 5.128 0 00.422-2.066zm-1.024 0c0 1.176-.422 2.156-1.238 2.926-.813.77-1.809 1.148-2.984 1.148h-1.66v-8.144h1.66c1.175 0 2.171.39 2.984 1.144.816.785 1.238 1.766 1.238 2.926zm0 0M181.188 238.178v-.98h-5.035v-3.65h4.887v-.995h-4.887V228.9h5.035v-.98h-6.09v10.258zm0 0M188.278 228.873h2.488v9.274h1.06v-9.274h2.487v-.98h-6.035zm0 0M203.06 234.408l1.87-4.722 1.856 4.722zm6.366 3.77l-4.496-10.965-4.508 10.965h1.145l1.101-2.79h4.508l1.102 2.79zm0 0M217.42 238.178V227.92h-1.055v10.258zm0 0M226.394 237.123v-9.203h-1.055v10.258h4.72v-1.055zm0 0M238.204 238.178V227.92h-1.055v10.258zm0 0M247.179 230.623l5.761 8.188V227.92h-1.054v7.543l-5.762-8.191v10.906h1.055zm0 0M270.977 233.38h-5.336v.923h4.16c-.316.886-.844 1.613-1.597 2.14-.754.543-1.598.801-2.52.801-1.176 0-2.172-.41-3-1.238-.816-.828-1.223-1.84-1.223-3 0-1.164.407-2.16 1.239-2.988.812-.813 1.808-1.235 2.984-1.235.875 0 1.676.254 2.383.754a4.208 4.208 0 011.57 1.973h1.113a5.182 5.182 0 00-1.93-2.727c-.933-.695-2.019-1.058-3.241-1.058-.665 0-1.313.152-1.946.422a5.174 5.174 0 00-1.687 1.132 5.25 5.25 0 00-1.133 1.676 5.335 5.335 0 00-.406 2.063 5.24 5.24 0 001.539 3.742c.48.484 1.039.86 1.687 1.133.633.27 1.328.406 2.051.406 1.238 0 2.352-.395 3.348-1.192.996-.816 1.613-1.84 1.84-3.093zm0 0"/><path fill="none" d="M127.5 201.914h120" stroke="#000000" stroke-width="5.75"/></svg>