<svg width="300" height="150" viewBox="0 0 300 150" fill="blackl" xmlns="http://www.w3.org/2000/svg">
<g id="Frame 1">
<rect width="300" height="150" fill="white"/>
<rect id="Separator" x="62" y="75" width="177" height="150" fill="#88E9FE"/>
<path id="Title" d="M68.6 65H66.04V30.44C66.04 28.392 65.592 26.8133 64.696 25.704C63.8427 24.5947 62.3707 24.04 60.28 24.04H59.64V22.76H63.8C65.7627 22.76 67.4267 23.08 68.792 23.72C70.1573 24.36 71.3733 25.32 72.44 26.6L94.84 54.44V22.76H97.4V65.64H96.12L68.6 31.4V65ZM114.269 65C112.69 65 111.495 64.808 110.685 64.424C109.917 63.9973 109.362 63.2507 109.021 62.184C108.679 61.1173 108.509 59.496 108.509 57.32V22.76H114.269V57.32C114.269 59.496 114.567 61.1173 115.165 62.184C115.762 63.208 116.957 63.72 118.749 63.72H120.029V65H114.269ZM143.281 66.28C139.313 66.28 135.814 65.32 132.785 63.4C129.798 61.48 127.494 58.8773 125.873 55.592C124.252 52.264 123.441 48.5733 123.441 44.52C123.441 40.3387 124.316 36.4773 126.065 32.936C127.857 29.3947 130.268 26.6 133.297 24.552C136.369 22.504 139.697 21.48 143.281 21.48C146.694 21.48 149.681 21.9707 152.241 22.952C154.844 23.8907 156.764 25.1067 158.001 26.6C158.726 27.496 159.174 28.6907 159.345 30.184C159.516 31.6347 159.601 33.64 159.601 36.2H158.321C157.51 32.0613 156.017 29.0107 153.841 27.048C151.665 25.0427 148.785 24.04 145.201 24.04C140.593 24.04 136.881 25.6613 134.065 28.904C131.249 32.1467 129.841 37.352 129.841 44.52C129.841 47.8907 130.374 51.0267 131.441 53.928C132.55 56.8293 134.257 59.1973 136.561 61.032C138.865 62.824 141.745 63.72 145.201 63.72C148.316 63.72 151.025 62.9733 153.329 61.48C155.676 59.9867 157.766 57.7467 159.601 54.76L160.881 55.72C158.918 59.56 156.486 62.2907 153.585 63.912C150.726 65.4907 147.292 66.28 143.281 66.28ZM202.932 65.64C200.926 65.64 198.836 65.1067 196.66 64.04C194.484 62.9307 191.988 60.904 189.172 57.96L175.732 43.88V65H169.972V30.44C169.972 28.264 169.673 26.664 169.076 25.64C168.478 24.5733 167.284 24.04 165.492 24.04H164.212V22.76H169.972C171.55 22.76 172.724 22.9733 173.492 23.4C174.302 23.784 174.878 24.5093 175.22 25.576C175.561 26.6427 175.732 28.264 175.732 30.44V42.92L189.172 29.48L190.452 28.136C191.646 26.8987 192.649 25.9387 193.46 25.256C194.27 24.5307 195.23 23.9333 196.34 23.464C197.449 22.9947 198.686 22.76 200.052 22.76H203.252V24.36C201.46 24.36 199.902 24.68 198.58 25.32C197.257 25.9173 195.721 27.0907 193.972 28.84L181.492 41.32L196.212 56.68C198.089 58.6 199.988 60.2213 201.908 61.544C203.828 62.824 205.556 63.5707 207.092 63.784V65C205.812 65.4267 204.425 65.64 202.932 65.64ZM224.548 66.088C222.201 66.088 219.897 65.768 217.636 65.128C215.375 64.488 213.519 63.5707 212.068 62.376C210.66 61.1813 209.956 59.816 209.956 58.28V51.432H211.108C211.833 55.6987 213.241 58.792 215.332 60.712C217.423 62.5893 220.303 63.528 223.972 63.528C226.276 63.528 228.239 62.952 229.86 61.8C231.524 60.648 232.356 59.048 232.356 57C232.356 55.208 231.801 53.6507 230.692 52.328C229.583 51.0053 227.791 49.6187 225.316 48.168L217.444 43.496C214.713 41.8747 212.772 40.232 211.62 38.568C210.511 36.904 209.956 34.8773 209.956 32.488C209.956 29.2027 211.087 26.5787 213.348 24.616C215.652 22.6107 218.66 21.608 222.372 21.608C224.548 21.608 226.703 21.928 228.836 22.568C230.969 23.1653 232.719 24.0613 234.084 25.256C235.492 26.408 236.196 27.752 236.196 29.288V36.136H235.044C234.319 31.8693 232.932 28.8187 230.884 26.984C228.879 25.1067 226.041 24.168 222.372 24.168C220.409 24.168 218.681 24.7653 217.188 25.96C215.695 27.1547 214.948 28.712 214.948 30.632C214.948 32.3813 215.481 33.832 216.548 34.984C217.657 36.136 219.492 37.48 222.052 39.016L229.924 43.688C232.825 45.4373 234.873 47.0587 236.068 48.552C237.263 50.0453 237.86 51.944 237.86 54.248C237.86 57.832 236.665 60.712 234.276 62.888C231.887 65.0213 228.644 66.088 224.548 66.088Z" fill="black"/>
<g id="SubTitle">
<path d="M83.52 109.168C82.256 109.168 81.104 108.848 80.064 108.208C79.04 107.552 78.224 106.592 77.616 105.328C77.008 104.064 76.704 102.536 76.704 100.744C76.704 98.936 77.008 97.392 77.616 96.112C78.24 94.832 79.104 93.856 80.208 93.184C81.312 92.496 82.584 92.152 84.024 92.152C84.792 92.152 85.6 92.248 86.448 92.44C87.312 92.616 88.2 92.912 89.112 93.328L88.968 96.784H88.224L87.888 93.736L88.128 94.048C87.424 93.744 86.712 93.52 85.992 93.376C85.272 93.216 84.608 93.136 84 93.136C82.8 93.136 81.744 93.44 80.832 94.048C79.936 94.64 79.232 95.496 78.72 96.616C78.224 97.72 77.976 99.04 77.976 100.576C77.976 102.192 78.232 103.56 78.744 104.68C79.256 105.8 79.96 106.656 80.856 107.248C81.752 107.84 82.744 108.136 83.832 108.136C84.632 108.136 85.456 107.968 86.304 107.632C87.168 107.28 88 106.752 88.8 106.048L89.328 106.792C88.416 107.592 87.456 108.192 86.448 108.592C85.456 108.976 84.48 109.168 83.52 109.168ZM100.509 108.256L100.269 107.944L102.549 108.28V108.952L99.6212 109.072L99.4532 106.768L99.5732 106.84C98.8532 107.592 98.0692 108.168 97.2212 108.568C96.3732 108.968 95.5572 109.168 94.7732 109.168C93.8452 109.168 93.0772 108.88 92.4692 108.304C91.8772 107.728 91.5812 106.856 91.5812 105.688C91.5812 104.744 91.7732 104.024 92.1572 103.528C92.5572 103.032 93.0932 102.696 93.7652 102.52C94.4372 102.344 95.1972 102.256 96.0452 102.256H99.5492L99.3572 102.448V99.808C99.3572 98.864 99.0932 98.184 98.5652 97.768C98.0372 97.352 97.3252 97.144 96.4292 97.144C95.9492 97.144 95.4372 97.2 94.8932 97.312C94.3492 97.424 93.7732 97.584 93.1652 97.792L93.4052 97.504L93.2132 99.784H92.3732L92.1812 97.12C93.0132 96.832 93.8052 96.616 94.5572 96.472C95.3092 96.312 96.0132 96.232 96.6692 96.232C97.8532 96.232 98.7892 96.496 99.4772 97.024C100.165 97.552 100.509 98.416 100.509 99.616V108.256ZM92.7572 105.568C92.7572 106.48 92.9732 107.16 93.4052 107.608C93.8532 108.04 94.4212 108.256 95.1092 108.256C95.7492 108.256 96.4532 108.064 97.2212 107.68C98.0052 107.296 98.7572 106.768 99.4772 106.096L99.3572 106.48V102.88L99.5492 103.072H96.2132C94.9652 103.072 94.0772 103.264 93.5492 103.648C93.0212 104.032 92.7572 104.672 92.7572 105.568ZM104.086 109V108.328L106.318 107.944L106.126 108.208V97.264L106.342 97.528L104.086 97.144V96.472L107.014 96.328L107.206 98.704L107.014 98.632C107.718 97.88 108.414 97.296 109.102 96.88C109.79 96.448 110.55 96.232 111.382 96.232C111.894 96.232 112.422 96.312 112.966 96.472L112.822 99.472H112.054L111.79 97L111.958 97.312C111.83 97.28 111.694 97.256 111.55 97.24C111.406 97.224 111.27 97.216 111.142 97.216C110.422 97.216 109.726 97.424 109.054 97.84C108.398 98.256 107.758 98.816 107.134 99.52L107.278 99.112V108.208L107.038 107.944L109.75 108.328V109H104.086Z" fill="black"/>
<path d="M126.687 92.32C127.679 92.32 128.615 92.48 129.495 92.8C130.375 93.12 131.151 93.616 131.823 94.288C132.511 94.944 133.047 95.784 133.431 96.808C133.831 97.816 134.031 99.024 134.031 100.432C134.031 102.304 133.687 103.88 132.999 105.16C132.311 106.424 131.391 107.384 130.239 108.04C129.087 108.68 127.791 109 126.351 109H119.703V108.328L122.199 107.92L121.959 108.208V93.136L122.199 93.448L119.703 93.112V92.44L123.735 92.32H126.687ZM126.375 108.064C127.207 108.064 128.007 107.928 128.775 107.656C129.543 107.368 130.223 106.928 130.815 106.336C131.423 105.728 131.895 104.944 132.231 103.984C132.583 103.024 132.759 101.88 132.759 100.552C132.759 99.256 132.591 98.144 132.255 97.216C131.935 96.288 131.487 95.536 130.911 94.96C130.335 94.368 129.679 93.936 128.943 93.664C128.223 93.392 127.455 93.256 126.639 93.256H122.871L123.135 92.992V108.328L122.871 108.064H126.375ZM142.116 109.168C141.092 109.168 140.18 108.928 139.38 108.448C138.596 107.968 137.98 107.256 137.532 106.312C137.084 105.368 136.86 104.224 136.86 102.88C136.86 101.536 137.084 100.368 137.532 99.376C137.996 98.368 138.644 97.592 139.476 97.048C140.324 96.504 141.316 96.232 142.452 96.232C143.508 96.232 144.388 96.464 145.092 96.928C145.796 97.392 146.324 98.032 146.676 98.848C147.028 99.664 147.204 100.6 147.204 101.656C147.204 101.784 147.196 101.92 147.18 102.064C147.18 102.192 147.172 102.36 147.156 102.568H137.652V101.68H146.22L146.004 101.824C146.02 100.992 145.916 100.224 145.692 99.52C145.468 98.8 145.084 98.224 144.54 97.792C144.012 97.36 143.292 97.144 142.38 97.144C141.468 97.144 140.684 97.384 140.028 97.864C139.388 98.328 138.892 98.984 138.54 99.832C138.204 100.664 138.036 101.632 138.036 102.736C138.036 103.888 138.212 104.88 138.564 105.712C138.932 106.528 139.436 107.152 140.076 107.584C140.732 108.016 141.492 108.232 142.356 108.232C143.012 108.232 143.708 108.112 144.444 107.872C145.196 107.616 145.956 107.224 146.724 106.696L147.18 107.392C146.316 108 145.452 108.448 144.588 108.736C143.724 109.024 142.9 109.168 142.116 109.168ZM153.658 109.168C152.954 109.168 152.386 108.952 151.954 108.52C151.522 108.072 151.306 107.392 151.306 106.48V97.048L151.546 97.264H148.978V96.592L151.546 96.376L151.306 96.64V93.544L152.458 93.376V96.64L152.242 96.4H156.058L156.01 97.264H152.242L152.458 97.048V106.312C152.458 106.984 152.602 107.472 152.89 107.776C153.178 108.08 153.562 108.232 154.042 108.232C154.346 108.232 154.674 108.184 155.026 108.088C155.394 107.976 155.77 107.824 156.154 107.632L156.442 108.352C155.418 108.896 154.49 109.168 153.658 109.168ZM167.001 108.256L166.761 107.944L169.041 108.28V108.952L166.113 109.072L165.945 106.768L166.065 106.84C165.345 107.592 164.561 108.168 163.713 108.568C162.865 108.968 162.049 109.168 161.265 109.168C160.337 109.168 159.569 108.88 158.961 108.304C158.369 107.728 158.073 106.856 158.073 105.688C158.073 104.744 158.265 104.024 158.649 103.528C159.049 103.032 159.585 102.696 160.257 102.52C160.929 102.344 161.689 102.256 162.537 102.256H166.041L165.849 102.448V99.808C165.849 98.864 165.585 98.184 165.057 97.768C164.529 97.352 163.817 97.144 162.921 97.144C162.441 97.144 161.929 97.2 161.385 97.312C160.841 97.424 160.265 97.584 159.657 97.792L159.897 97.504L159.705 99.784H158.865L158.673 97.12C159.505 96.832 160.297 96.616 161.049 96.472C161.801 96.312 162.505 96.232 163.161 96.232C164.345 96.232 165.281 96.496 165.969 97.024C166.657 97.552 167.001 98.416 167.001 99.616V108.256ZM159.249 105.568C159.249 106.48 159.465 107.16 159.897 107.608C160.345 108.04 160.913 108.256 161.601 108.256C162.241 108.256 162.945 108.064 163.713 107.68C164.497 107.296 165.249 106.768 165.969 106.096L165.849 106.48V102.88L166.041 103.072H162.705C161.457 103.072 160.569 103.264 160.041 103.648C159.513 104.032 159.249 104.672 159.249 105.568ZM173.77 108.16L173.578 107.944L175.786 108.328V109H170.578V108.328L172.786 107.944L172.618 108.16V97.312L172.786 97.504L170.578 97.144V96.472L173.77 96.328V108.16ZM173.002 93.352C172.73 93.352 172.506 93.264 172.33 93.088C172.17 92.912 172.09 92.672 172.09 92.368C172.09 92.032 172.178 91.776 172.354 91.6C172.53 91.424 172.754 91.336 173.026 91.336C173.314 91.336 173.538 91.424 173.698 91.6C173.874 91.776 173.962 92.032 173.962 92.368C173.962 92.688 173.866 92.936 173.674 93.112C173.498 93.272 173.274 93.352 173.002 93.352ZM180.396 108.16L180.204 107.944L182.412 108.328V109H177.204V108.328L179.412 107.944L179.244 108.16V91.552L179.412 91.768L177.204 91.384V90.712L180.396 90.568V108.16ZM187.317 108.16L187.125 107.944L189.333 108.328V109H184.125V108.328L186.333 107.944L186.165 108.16V97.312L186.333 97.504L184.125 97.144V96.472L187.317 96.328V108.16ZM186.549 93.352C186.277 93.352 186.053 93.264 185.877 93.088C185.717 92.912 185.637 92.672 185.637 92.368C185.637 92.032 185.725 91.776 185.901 91.6C186.077 91.424 186.301 91.336 186.573 91.336C186.861 91.336 187.085 91.424 187.245 91.6C187.421 91.776 187.509 92.032 187.509 92.368C187.509 92.688 187.413 92.936 187.221 93.112C187.045 93.272 186.821 93.352 186.549 93.352ZM191.016 109V108.328L193.272 107.92L193.056 108.184V97.264L193.272 97.528L191.016 97.144V96.472L193.944 96.328L194.136 98.704L193.944 98.632C194.744 97.8 195.584 97.192 196.464 96.808C197.344 96.424 198.176 96.232 198.96 96.232C200.016 96.232 200.88 96.552 201.552 97.192C202.24 97.816 202.576 98.792 202.56 100.12V108.184L202.344 107.92L204.576 108.328V109H199.416V108.328L201.624 107.944L201.408 108.208V100.384C201.408 99.28 201.152 98.472 200.64 97.96C200.128 97.432 199.448 97.168 198.6 97.168C197.928 97.168 197.192 97.352 196.392 97.72C195.608 98.088 194.832 98.664 194.064 99.448L194.208 99.136V108.208L193.992 107.944L196.2 108.328V109H191.016ZM211.486 114.688C209.678 114.688 208.318 114.416 207.406 113.872C206.494 113.328 206.038 112.544 206.038 111.52C206.038 110.848 206.262 110.224 206.71 109.648C207.158 109.088 207.814 108.576 208.678 108.112L208.726 108.328C208.262 108.312 207.918 108.24 207.694 108.112C207.47 107.968 207.358 107.752 207.358 107.464C207.358 107.352 207.374 107.24 207.406 107.128C207.438 107.016 207.486 106.848 207.55 106.624C207.63 106.4 207.742 106.088 207.886 105.688C208.046 105.288 208.254 104.744 208.51 104.056L208.582 104.272C207.942 103.92 207.454 103.44 207.118 102.832C206.782 102.208 206.614 101.488 206.614 100.672C206.614 99.296 207.046 98.216 207.91 97.432C208.79 96.632 209.99 96.232 211.51 96.232C212.47 96.232 213.31 96.4 214.03 96.736L213.646 96.664L217.27 96.448L217.294 97.216L214.918 97.672L215.038 97.48C215.422 97.832 215.71 98.256 215.902 98.752C216.11 99.248 216.214 99.816 216.214 100.456C216.214 101.832 215.774 102.92 214.894 103.72C214.014 104.52 212.83 104.92 211.342 104.92C210.414 104.92 209.582 104.744 208.846 104.392L209.11 104.224L208.366 107.656L208.102 107.464H212.734C214.238 107.464 215.382 107.752 216.166 108.328C216.966 108.904 217.366 109.744 217.366 110.848C217.366 112.096 216.862 113.048 215.854 113.704C214.862 114.36 213.406 114.688 211.486 114.688ZM211.558 113.776C213.11 113.776 214.27 113.536 215.038 113.056C215.822 112.576 216.214 111.864 216.214 110.92C216.214 110.088 215.902 109.456 215.278 109.024C214.67 108.608 213.758 108.4 212.542 108.4H208.942L209.35 108.304C207.846 109.264 207.094 110.272 207.094 111.328C207.094 112.128 207.462 112.736 208.198 113.152C208.95 113.568 210.07 113.776 211.558 113.776ZM211.342 104.032C212.51 104.032 213.414 103.728 214.054 103.12C214.71 102.496 215.038 101.624 215.038 100.504C215.038 99.4 214.726 98.56 214.102 97.984C213.494 97.392 212.614 97.096 211.462 97.096C210.31 97.096 209.414 97.4 208.774 98.008C208.134 98.616 207.814 99.488 207.814 100.624C207.814 101.712 208.118 102.552 208.726 103.144C209.35 103.736 210.222 104.032 211.342 104.032Z" fill="#0500FF"/>
</g>
</g>
</svg>
