<svg xmlns="http://www.w3.org/2000/svg" xmlns:xlink="http://www.w3.org/1999/xlink" width="150" zoomAndPan="magnify" viewBox="0 0 112.5 74.999997" height="100" preserveAspectRatio="xMidYMid meet" version="1.0"><defs><g/></defs><g fill="#000000" fill-opacity="1"><g transform="translate(0.210937, 42.897595)"><g><path d="M 0.902344 -30.089844 L 0.902344 -29.789062 C 3.492188 -29.789062 3.671875 -27.652344 3.671875 -21.726562 L 3.671875 -8.363281 C 3.671875 -2.4375 3.492188 -0.300781 0.902344 -0.300781 L 0.902344 0 L 9.027344 0 L 9.027344 -0.300781 C 6.4375 -0.300781 3.972656 -3.820312 3.972656 -12.578125 L 3.972656 -28.40625 L 23.019531 0.601562 L 23.320312 0.601562 L 23.320312 -21.726562 C 23.320312 -27.652344 23.5 -29.789062 26.089844 -29.789062 L 26.089844 -30.089844 L 17.964844 -30.089844 L 17.964844 -29.789062 C 20.550781 -29.789062 23.019531 -26.269531 23.019531 -17.511719 L 23.019531 -4.394531 L 6.167969 -30.089844 Z M 0.902344 -30.089844 "/></g></g></g><g fill="#000000" fill-opacity="1"><g transform="translate(27.194536, 42.897595)"><g><path d="M 0.902344 -29.789062 C 3.492188 -29.789062 3.671875 -27.652344 3.671875 -21.726562 L 3.671875 -8.363281 C 3.671875 -2.4375 3.492188 -0.300781 0.902344 -0.300781 L 0.902344 0 L 9.027344 0 L 9.027344 -0.300781 C 6.4375 -0.300781 6.257812 -2.4375 6.257812 -8.363281 L 6.257812 -21.726562 C 6.257812 -27.652344 6.4375 -29.789062 9.027344 -29.789062 L 9.027344 -30.089844 L 0.902344 -30.089844 Z M 0.902344 -29.789062 "/></g></g></g><g fill="#000000" fill-opacity="1"><g transform="translate(37.12161, 42.897595)"><g><path d="M 15.195312 0.601562 C 19.046875 0.601562 21.695312 0 24.101562 -0.78125 L 24.101562 -4.8125 L 23.769531 -4.8125 C 23.769531 -4.8125 21.875 0.242188 15.195312 0.242188 C 9.386719 0.242188 4.511719 -6.257812 4.511719 -15.046875 C 4.511719 -23.832031 8.96875 -30.332031 15.195312 -30.332031 C 20.21875 -30.332031 22.65625 -28.195312 22.65625 -24.613281 C 22.65625 -20.21875 14.203125 -18.445312 14.203125 -13.148438 C 14.203125 -11.765625 15.195312 -9.988281 16.820312 -10.351562 C 16.21875 -10.863281 15.917969 -11.375 15.917969 -12.308594 C 15.917969 -15.886719 24.433594 -18.113281 24.433594 -24.371094 C 24.433594 -27.109375 22.085938 -30.691406 15.195312 -30.691406 C 7.703125 -30.691406 1.804688 -24.070312 1.804688 -15.046875 C 1.804688 -6.019531 7.703125 0.601562 15.195312 0.601562 Z M 15.195312 0.601562 "/></g></g></g><g fill="#000000" fill-opacity="1"><g transform="translate(62.149871, 42.897595)"><g><path d="M 19.46875 -27.230469 C 19.46875 -18.804688 7.433594 -17.753906 7.433594 -15.046875 C 7.433594 -13.328125 10.199219 -14.023438 13.539062 -9.027344 C 18.292969 -1.894531 19.136719 0 20.519531 0 L 25.125 0 L 25.125 -0.300781 C 21.695312 -0.300781 18.867188 -5.625 16.039062 -9.839844 C 13.148438 -14.171875 7.734375 -13.328125 7.734375 -15.046875 C 7.734375 -17 22.296875 -17.992188 22.296875 -27.292969 C 22.296875 -28.40625 21.9375 -29.578125 21.394531 -30.089844 L 18.414062 -30.089844 C 19.078125 -29.609375 19.46875 -28.34375 19.46875 -27.230469 Z M 0.902344 0 L 8.996094 0 L 8.996094 -0.300781 C 6.410156 -0.300781 6.230469 -2.4375 6.230469 -8.363281 L 6.230469 -21.726562 C 6.230469 -27.652344 6.410156 -29.789062 8.996094 -29.789062 L 8.996094 -30.089844 L 0.902344 -30.089844 L 0.902344 -29.789062 C 3.492188 -29.789062 3.671875 -27.652344 3.671875 -21.726562 L 3.671875 -8.363281 C 3.671875 -2.4375 3.492188 -0.300781 0.902344 -0.300781 Z M 0.902344 0 "/></g></g></g><g fill="#000000" fill-opacity="1"><g transform="translate(87.5692, 42.897595)"><g><path d="M 1.804688 -22.867188 C 1.804688 -13 21.183594 -15.554688 21.183594 -6.5 C 21.183594 -3.160156 17.722656 0.0585938 13.328125 0.0585938 C 6.167969 0.0585938 2.226562 -7.101562 2.226562 -7.101562 L 1.925781 -7.101562 L 1.925781 -3.070312 C 4.152344 -1.414062 7.671875 0.601562 11.644531 0.601562 C 18.59375 0.601562 22.929688 -3.550781 22.929688 -7.734375 C 22.929688 -18.265625 3.910156 -15.347656 3.910156 -23.589844 C 3.910156 -26.929688 6.980469 -30.332031 12.578125 -30.332031 C 19.015625 -30.332031 20.851562 -25.277344 20.851562 -25.277344 L 21.152344 -25.277344 L 21.152344 -29.308594 C 18.835938 -30.089844 16.277344 -30.691406 12.578125 -30.691406 C 5.625 -30.691406 1.804688 -27.050781 1.804688 -22.867188 Z M 1.804688 -22.867188 "/></g></g></g><g fill="#000000" fill-opacity="1"><g transform="translate(10.910108, 63.928647)"><g><path d="M 5.679688 -1.691406 L 5.054688 -1.691406 C 4.859375 -1.332031 4.589844 -1.039062 4.25 -0.828125 C 3.910156 -0.609375 3.527344 -0.503906 3.121094 -0.503906 C 2.511719 -0.503906 1.992188 -0.722656 1.558594 -1.179688 C 1.136719 -1.609375 0.933594 -2.136719 0.933594 -2.753906 C 0.933594 -3.371094 1.136719 -3.898438 1.558594 -4.339844 C 1.753906 -4.542969 1.992188 -4.703125 2.257812 -4.828125 C 2.519531 -4.949219 2.777344 -5.011719 3.039062 -5.011719 C 3.289062 -5.011719 3.511719 -4.980469 3.707031 -4.925781 C 4.296875 -4.746094 4.746094 -4.386719 5.046875 -3.84375 L 5.671875 -3.84375 C 5.460938 -4.363281 5.128906 -4.785156 4.664062 -5.109375 C 4.191406 -5.4375 3.679688 -5.597656 3.121094 -5.597656 C 2.347656 -5.597656 1.699219 -5.3125 1.160156 -4.753906 C 0.910156 -4.492188 0.714844 -4.183594 0.578125 -3.84375 C 0.429688 -3.503906 0.367188 -3.136719 0.367188 -2.753906 C 0.367188 -1.972656 0.625 -1.316406 1.160156 -0.765625 C 1.699219 -0.195312 2.347656 0.0820312 3.121094 0.0820312 C 3.679688 0.0820312 4.191406 -0.0820312 4.671875 -0.40625 C 5.136719 -0.730469 5.46875 -1.152344 5.679688 -1.691406 Z M 5.679688 -1.691406 "/></g></g></g><g fill="#000000" fill-opacity="1"><g transform="translate(19.880383, 63.928647)"><g><path d="M 1.503906 -2.03125 L 2.511719 -4.574219 L 3.511719 -2.03125 Z M 4.933594 0 L 2.511719 -5.90625 L 0.0820312 0 L 0.699219 0 L 1.292969 -1.503906 L 3.722656 -1.503906 L 4.316406 0 Z M 4.933594 0 "/></g></g></g><g fill="#000000" fill-opacity="1"><g transform="translate(27.940628, 63.928647)"><g><path d="M 1.179688 -2.730469 L 1.179688 -4.980469 L 2.460938 -4.980469 C 2.796875 -4.980469 3.0625 -4.875 3.265625 -4.664062 C 3.460938 -4.453125 3.566406 -4.191406 3.566406 -3.867188 C 3.566406 -3.542969 3.460938 -3.273438 3.25 -3.054688 C 3.039062 -2.835938 2.777344 -2.730469 2.460938 -2.730469 Z M 4.136719 -3.859375 C 4.136719 -4.332031 3.957031 -4.738281 3.617188 -5.054688 C 3.28125 -5.363281 2.867188 -5.523438 2.378906 -5.523438 L 0.609375 -5.523438 L 0.609375 0 L 1.179688 0 L 1.179688 -2.1875 L 1.835938 -2.1875 L 3.460938 0 L 4.226562 0 L 2.519531 -2.1875 C 2.949219 -2.210938 3.316406 -2.363281 3.617188 -2.648438 C 3.957031 -2.964844 4.136719 -3.371094 4.136719 -3.859375 Z M 4.136719 -3.859375 "/></g></g></g><g fill="#000000" fill-opacity="1"><g transform="translate(35.407728, 63.928647)"><g/></g></g><g fill="#000000" fill-opacity="1"><g transform="translate(40.648503, 63.928647)"><g><path d="M 4.898438 -2.761719 C 4.898438 -3.160156 4.816406 -3.527344 4.671875 -3.867188 C 4.527344 -4.207031 4.324219 -4.5 4.070312 -4.746094 C 3.8125 -4.988281 3.511719 -5.175781 3.167969 -5.3125 C 2.820312 -5.453125 2.445312 -5.523438 2.054688 -5.523438 L 0.609375 -5.523438 L 0.609375 0 L 2.054688 0 C 2.445312 0 2.820312 -0.0664062 3.167969 -0.203125 C 3.511719 -0.339844 3.8125 -0.535156 4.070312 -0.78125 C 4.324219 -1.023438 4.527344 -1.308594 4.671875 -1.648438 C 4.816406 -1.992188 4.898438 -2.355469 4.898438 -2.761719 Z M 4.347656 -2.761719 C 4.347656 -2.128906 4.121094 -1.601562 3.679688 -1.1875 C 3.242188 -0.773438 2.707031 -0.570312 2.070312 -0.570312 L 1.179688 -0.570312 L 1.179688 -4.957031 L 2.070312 -4.957031 C 2.707031 -4.957031 3.242188 -4.746094 3.679688 -4.339844 C 4.121094 -3.917969 4.347656 -3.386719 4.347656 -2.761719 Z M 4.347656 -2.761719 "/></g></g></g><g fill="#000000" fill-opacity="1"><g transform="translate(48.960636, 63.928647)"><g><path d="M 3.890625 0 L 3.890625 -0.527344 L 1.179688 -0.527344 L 1.179688 -2.496094 L 3.8125 -2.496094 L 3.8125 -3.03125 L 1.179688 -3.03125 L 1.179688 -4.996094 L 3.890625 -4.996094 L 3.890625 -5.523438 L 0.609375 -5.523438 L 0.609375 0 Z M 3.890625 0 "/></g></g></g><g fill="#000000" fill-opacity="1"><g transform="translate(56.508985, 63.928647)"><g><path d="M 0.164062 -5.011719 L 1.503906 -5.011719 L 1.503906 -0.015625 L 2.070312 -0.015625 L 2.070312 -5.011719 L 3.414062 -5.011719 L 3.414062 -5.542969 L 0.164062 -5.542969 Z M 0.164062 -5.011719 "/></g></g></g><g fill="#000000" fill-opacity="1"><g transform="translate(63.131062, 63.928647)"><g><path d="M 1.503906 -2.03125 L 2.511719 -4.574219 L 3.511719 -2.03125 Z M 4.933594 0 L 2.511719 -5.90625 L 0.0820312 0 L 0.699219 0 L 1.292969 -1.503906 L 3.722656 -1.503906 L 4.316406 0 Z M 4.933594 0 "/></g></g></g><g fill="#000000" fill-opacity="1"><g transform="translate(71.191308, 63.928647)"><g><path d="M 1.179688 0 L 1.179688 -5.523438 L 0.609375 -5.523438 L 0.609375 0 Z M 1.179688 0 "/></g></g></g><g fill="#000000" fill-opacity="1"><g transform="translate(76.025818, 63.928647)"><g><path d="M 1.179688 -0.570312 L 1.179688 -5.523438 L 0.609375 -5.523438 L 0.609375 0 L 3.152344 0 L 3.152344 -0.570312 Z M 1.179688 -0.570312 "/></g></g></g><g fill="#000000" fill-opacity="1"><g transform="translate(82.387887, 63.928647)"><g><path d="M 1.179688 0 L 1.179688 -5.523438 L 0.609375 -5.523438 L 0.609375 0 Z M 1.179688 0 "/></g></g></g><g fill="#000000" fill-opacity="1"><g transform="translate(87.222397, 63.928647)"><g><path d="M 1.179688 -4.070312 L 4.28125 0.339844 L 4.28125 -5.523438 L 3.714844 -5.523438 L 3.714844 -1.460938 L 0.609375 -5.875 L 0.609375 0 L 1.179688 0 Z M 1.179688 -4.070312 "/></g></g></g><g fill="#000000" fill-opacity="1"><g transform="translate(95.160759, 63.928647)"><g><path d="M 6.0625 -2.582031 L 3.183594 -2.582031 L 3.183594 -2.089844 L 5.425781 -2.089844 C 5.257812 -1.609375 4.972656 -1.21875 4.566406 -0.933594 C 4.160156 -0.640625 3.707031 -0.503906 3.210938 -0.503906 C 2.574219 -0.503906 2.039062 -0.722656 1.59375 -1.171875 C 1.152344 -1.617188 0.933594 -2.160156 0.933594 -2.785156 C 0.933594 -3.414062 1.152344 -3.949219 1.601562 -4.394531 C 2.039062 -4.835938 2.574219 -5.0625 3.210938 -5.0625 C 3.679688 -5.0625 4.113281 -4.925781 4.492188 -4.65625 C 4.882812 -4.386719 5.160156 -4.039062 5.339844 -3.589844 L 5.941406 -3.589844 C 5.753906 -4.199219 5.402344 -4.6875 4.898438 -5.0625 C 4.394531 -5.4375 3.8125 -5.628906 3.152344 -5.628906 C 2.796875 -5.628906 2.445312 -5.550781 2.105469 -5.402344 C 1.753906 -5.257812 1.453125 -5.054688 1.195312 -4.792969 C 0.933594 -4.535156 0.730469 -4.234375 0.585938 -3.890625 C 0.4375 -3.542969 0.367188 -3.167969 0.367188 -2.777344 C 0.367188 -2.390625 0.4375 -2.015625 0.585938 -1.671875 C 0.730469 -1.324219 0.933594 -1.023438 1.195312 -0.765625 C 1.453125 -0.503906 1.753906 -0.300781 2.105469 -0.15625 C 2.445312 -0.0078125 2.820312 0.0664062 3.210938 0.0664062 C 3.875 0.0664062 4.476562 -0.144531 5.011719 -0.578125 C 5.550781 -1.015625 5.882812 -1.566406 6.003906 -2.242188 Z M 6.0625 -2.582031 "/></g></g></g><path stroke-linecap="butt" transform="matrix(1.492421, 0.000000000000000264, -0.000000000000000265, 1.5, 28.493879, 52.727539)" fill="none" stroke-linejoin="miter" d="M -0.00113368 -0.000650962 L 40.204611 -0.000650962 " stroke="#5ce1e6" stroke-width="1" stroke-opacity="1" stroke-miterlimit="4"/></svg>